<?xml version="1.0" encoding="UTF-8"?>
<svg version="1.1" xmlns="http://www.w3.org/2000/svg" width="511" height="475" viewBox="0 0 511 475">
<style>path{fill:#06b6d4}</style>
<path d="M0 0 C0.77214844 -0.00206451 1.54429687 -0.00412903 2.33984375 -0.0062561 C58.98501526 0.02063059 110.8986848 24.47200633 151.04321289 63.57299805 C154.14307802 66.72822529 157.02346525 70.05817476 159.875 73.4375 C160.33237549 73.97802002 160.78975098 74.51854004 161.26098633 75.07543945 C172.34056762 88.36629501 181.3691918 102.79510849 188.875 118.375 C189.31972656 119.29724365 189.76445312 120.2194873 190.22265625 121.16967773 C192.9206871 126.94166918 195.09782438 132.76407088 197.02929688 138.83520508 C197.73270625 140.99965095 198.50335928 143.08715716 199.375 145.1875 C212.80736561 180.66646568 213.18559387 225.60715442 201.875 261.4375 C201.48755835 262.74810099 201.10221504 264.05932375 200.71875 265.37109375 C193.51860561 289.66243082 182.44823247 312.39338074 166.875 332.4375 C166.44960938 332.98986328 166.02421875 333.54222656 165.5859375 334.11132812 C153.80439652 349.20874306 139.6699712 363.59262743 123.875 374.4375 C123.27107422 374.85870117 122.66714844 375.27990234 122.04492188 375.71386719 C104.34445882 387.97559059 85.32319388 397.70702711 64.875 404.4375 C63.76511719 404.82292969 62.65523438 405.20835937 61.51171875 405.60546875 C25.56117797 417.52807503 -15.83496073 417.90778406 -52.125 407.4375 C-52.85525391 407.23286133 -53.58550781 407.02822266 -54.33789062 406.81738281 C-79.82954298 399.58501834 -104.50639089 388.25387685 -125.125 371.4375 C-125.99511719 370.756875 -126.86523438 370.07625 -127.76171875 369.375 C-139.7222964 359.87638067 -150.85439326 349.6030174 -160.125 337.4375 C-160.92164063 336.44492187 -161.71828125 335.45234375 -162.5390625 334.4296875 C-172.45556371 322.01525416 -180.43324138 308.62982031 -187.23876953 294.29101562 C-188.06440228 292.56423771 -188.91975125 290.85175519 -189.77734375 289.140625 C-193.99880362 280.50435595 -196.67892485 271.69614576 -199.125 262.4375 C-199.30804688 261.7676709 -199.49109375 261.0978418 -199.6796875 260.40771484 C-212.96251604 211.3791584 -207.37552943 157.07564306 -183.15478516 112.34082031 C-182.09931718 110.39003123 -181.071507 108.42603481 -180.04296875 106.4609375 C-167.51839139 82.96630217 -149.07703026 61.75308659 -128.125 45.4375 C-126.77535156 44.36242187 -126.77535156 44.36242187 -125.3984375 43.265625 C-111.15115119 32.19748522 -95.59455973 23.70648495 -79.125 16.4375 C-77.74634766 15.82648437 -77.74634766 15.82648437 -76.33984375 15.203125 C-73.95569833 14.20530084 -71.55914059 13.30683592 -69.125 12.4375 C-68.20895996 12.10371338 -68.20895996 12.10371338 -67.27441406 11.76318359 C-58.7789124 8.69259246 -50.2804008 6.0592821 -41.4375 4.1875 C-40.72730713 4.03667969 -40.01711426 3.88585938 -39.28540039 3.73046875 C-26.2026072 1.11890972 -13.30777669 0.00089743 0 0 Z M-122.125 76.4375 C-122.6401416 76.90736328 -123.1552832 77.37722656 -123.68603516 77.86132812 C-147.31287192 99.67538352 -162.80067959 128.77013177 -172.25 159.1875 C-172.49186035 159.94836914 -172.7337207 160.70923828 -172.98291016 161.49316406 C-177.19312226 175.4771859 -178.62498331 189.22498588 -178.51611328 203.76611328 C-178.50005214 206.30426091 -178.51605807 208.84080671 -178.53515625 211.37890625 C-178.59375507 258.54470142 -157.58087233 302.72812276 -124.875 336.125 C-114.01263169 346.89414339 -101.40493026 355.90415774 -88.125 363.4375 C-87.27204346 363.92959961 -87.27204346 363.92959961 -86.40185547 364.43164062 C-72.91815611 372.16618931 -58.83465663 377.57971041 -43.875 381.75 C-42.58227173 382.11375732 -42.58227173 382.11375732 -41.26342773 382.48486328 C-27.46636294 386.16321405 -13.81418946 386.84392586 0.375 386.8125 C1.25696045 386.81228851 2.1389209 386.81207703 3.04760742 386.81185913 C16.66359009 386.77929756 29.67559333 386.05197167 42.875 382.4375 C43.59397461 382.24494629 44.31294922 382.05239258 45.05371094 381.85400391 C49.73119117 380.56807285 54.30455914 379.05908022 58.875 377.4375 C59.52629883 377.21336426 60.17759766 376.98922852 60.84863281 376.75830078 C90.55224359 366.4974484 119.15362884 348.21446515 138.875 323.4375 C139.62910156 322.509375 140.38320313 321.58125 141.16015625 320.625 C159.15635683 298.11740378 171.41240086 272.477411 177.875 244.4375 C178.04161133 243.76009766 178.20822266 243.08269531 178.37988281 242.38476562 C188.6970326 199.45004289 177.5128869 150.44084647 154.875 113.4375 C149.81579908 105.24102923 144.14491385 97.7434065 137.875 90.4375 C136.82892578 89.20580078 136.82892578 89.20580078 135.76171875 87.94921875 C104.38191866 51.98005119 59.54465706 31.30584682 12.27148438 27.59423828 C-37.38475594 24.34655019 -85.72576151 43.01965728 -122.125 76.4375 Z " fill="#FFFFFF" transform="translate(254.125,31.5625)"/>
<path d="M0 0 C64.68 0 129.36 0 196 0 C196 16.17 196 32.34 196 49 C187.09 49 178.18 49 169 49 C169 42.07 169 35.14 169 28 C122.14 28 75.28 28 27 28 C27 43.18 27 58.36 27 74 C82.77 74 138.54 74 196 74 C196 130.17840843 196 130.17840843 189.8125 145.6875 C189.35967651 146.86046631 189.35967651 146.86046631 188.89770508 148.05712891 C181.96957054 165.51510444 171.84197759 179.3524371 159 193 C158.13761719 193.9590625 158.13761719 193.9590625 157.2578125 194.9375 C146.19676908 206.73594632 131.94326994 215.9678733 118 224 C116.78666992 224.69996094 116.78666992 224.69996094 115.54882812 225.4140625 C113.00403637 226.86379916 110.44403764 228.28123523 107.875 229.6875 C107.08109863 230.13440186 106.28719727 230.58130371 105.46923828 231.04174805 C102.14265361 232.81429481 99.79812894 233.98963469 95.9921875 234.0390625 C91.86607059 232.60623339 88.09409699 230.75263783 84.25 228.6875 C83.42306641 228.24672119 82.59613281 227.80594238 81.74414062 227.35180664 C64.71656921 218.09298388 49.47645875 206.94305711 36 193 C35.154375 192.175 34.30875 191.35 33.4375 190.5 C19.04741914 175.7409427 0 149.80028256 0 128 C9.24 128 18.48 128 28 128 C29.65 131.96 31.3 135.92 33 140 C43.88643807 164.57487076 61.96213733 182.7356008 84.875 196.5625 C85.57641113 196.99248291 86.27782227 197.42246582 87.00048828 197.86547852 C91.30024039 200.37920334 94.89774577 202.06833376 100 202 C102.94407334 200.91524341 105.48493834 199.36880722 108.125 197.6875 C108.86709717 197.23109131 109.60919434 196.77468262 110.3737793 196.30444336 C117.28618721 191.97684941 123.74775207 187.22886208 130 182 C130.51401367 181.57106445 131.02802734 181.14212891 131.55761719 180.70019531 C150.31330453 164.85710062 161.67404457 144.96679944 167 121 C167.33 114.73 167.66 108.46 168 102 C112.56 102 57.12 102 0 102 C0 68.34 0 34.68 0 0 Z " fill="#FFFFFF" transform="translate(158,137)"/>
</svg>
